<svg width="1000" height="648" viewBox="0 0 1000 648" fill="none" xmlns="http://www.w3.org/2000/svg">
<g clip-path="url(#clip0_12_2)">
<path d="M755.322 515.323C752.585 496.882 751.862 478.197 753.165 459.599L755.322 428.819C743.437 452.469 746.123 483.597 755.322 515.323Z" fill="#CACACA"/>
<path d="M764.591 520.472C763.273 509.468 762.926 498.369 763.553 487.303L764.591 468.982C758.872 483.059 760.165 501.588 764.591 520.472Z" fill="#CACACA"/>
<path d="M805.788 543.131V553.429C805.784 554.247 805.457 555.03 804.878 555.609C804.3 556.187 803.517 556.514 802.699 556.518H797.55C797.414 556.518 797.28 556.544 797.155 556.596C797.03 556.647 796.916 556.723 796.82 556.819C796.725 556.915 796.649 557.028 796.597 557.154C796.546 557.279 796.519 557.413 796.52 557.548V641.993C796.515 642.811 796.189 643.594 795.61 644.173C795.032 644.751 794.248 645.078 793.43 645.082H730.612C729.793 645.081 729.007 644.756 728.428 644.177C727.849 643.597 727.523 642.812 727.522 641.993V557.548C727.522 557.275 727.413 557.014 727.22 556.821C727.027 556.628 726.765 556.519 726.493 556.518H720.314C719.495 556.518 718.709 556.192 718.13 555.613C717.551 555.034 717.225 554.248 717.224 553.429V543.131C717.224 542.725 717.303 542.323 717.458 541.948C717.613 541.573 717.841 541.232 718.128 540.945C718.415 540.658 718.756 540.43 719.131 540.275C719.506 540.12 719.908 540.041 720.314 540.041H802.699C803.517 540.044 804.302 540.37 804.88 540.949C805.459 541.528 805.786 542.312 805.788 543.131Z" fill="#F2F2F2"/>
<path d="M796.612 558.681H727.615V561.77H796.612V558.681Z" fill="#E6E6E6"/>
<path d="M796.52 604.142C773.432 613.696 750.092 613.802 726.493 604.142V582.377C749.211 574.746 773.801 574.746 796.52 582.377V604.142Z" fill="#E6E6E6"/>
<path d="M464.94 257.845C485.64 257.845 502.421 241.065 502.421 220.365C502.421 199.664 485.64 182.884 464.94 182.884C444.24 182.884 427.46 199.664 427.46 220.365C427.46 241.065 444.24 257.845 464.94 257.845Z" fill="#2F2E41"/>
<path d="M475.383 183.915C481.869 183.916 488.244 185.6 493.885 188.803C499.526 192.005 504.239 196.617 507.564 202.187C510.889 207.756 512.712 214.093 512.854 220.578C512.997 227.063 511.454 233.474 508.377 239.184C511.627 235.119 513.993 230.421 515.327 225.39C516.66 220.359 516.931 215.105 516.122 209.964C515.313 204.822 513.442 199.906 510.627 195.528C507.813 191.15 504.118 187.406 499.777 184.535C495.435 181.663 490.544 179.728 485.413 178.852C480.283 177.976 475.026 178.178 469.978 179.446C464.931 180.714 460.202 183.019 456.094 186.215C451.987 189.411 448.59 193.428 446.12 198.01C449.624 193.611 454.075 190.059 459.141 187.619C464.208 185.179 469.759 183.913 475.383 183.915Z" fill="#2F2E41"/>
<path d="M394.902 220.285C455.709 220.285 505.002 170.992 505.002 110.185C505.002 49.3791 455.709 0.0857544 394.902 0.0857544C334.096 0.0857544 284.803 49.3791 284.803 110.185C284.803 170.992 334.096 220.285 394.902 220.285Z" fill="#2F2E41"/>
<path d="M308.492 41.8738C327.463 20.5383 353.981 7.40797 382.45 5.2541C410.919 3.10023 439.111 12.0913 461.076 30.3297C460.176 29.4739 459.285 28.6111 458.349 27.7795C436.524 8.39357 407.893 -1.53102 378.751 0.187915C349.61 1.90685 322.344 15.1286 302.949 36.9459C283.553 58.7633 273.616 87.3902 275.323 116.532C277.029 145.675 290.239 172.946 312.048 192.351C312.984 193.182 313.945 193.966 314.9 194.76C294.215 175.082 281.983 148.137 280.787 119.612C279.592 91.0873 289.525 63.2135 308.492 41.8738Z" fill="#2F2E41"/>
<path d="M393.969 219.352C433.133 219.352 464.881 187.604 464.881 148.44C464.881 109.277 433.133 77.5287 393.969 77.5287C354.806 77.5287 323.058 109.277 323.058 148.44C323.058 187.604 354.806 219.352 393.969 219.352Z" fill="#FFB8B8"/>
<path d="M430.194 238.602L354.308 242.014C354.308 242.014 360.642 281.258 319.588 284.99C278.534 288.723 241.212 277.526 226.283 305.517C211.354 333.509 217.789 433.179 217.789 433.179C217.789 433.179 245.78 533.948 268.174 548.877C290.567 563.806 486.507 543.279 486.507 543.279L568.509 439.738L565.732 359.887C564.281 318.188 526.211 286.882 485.207 294.598C484.402 294.75 483.591 294.913 482.775 295.088C482.775 295.088 473.767 288.355 449.051 275.998C433.937 268.441 430.194 238.602 430.194 238.602Z" fill="#CACACA"/>
<path d="M265.471 283.124C265.471 283.124 283.507 315.849 276.043 362.502C268.578 409.154 299.897 507.823 299.897 507.823L322.29 502.225C322.29 502.225 307.362 405.188 311.094 382.794C314.826 360.401 315.856 294.321 297.195 283.124C278.534 271.928 265.471 283.124 265.471 283.124Z" fill="#2F2E41"/>
<path d="M481.462 300.283L489.306 506.89L504.235 516.22C504.235 516.22 525.695 289.49 514.498 289.49H491.716C490.368 289.49 489.033 289.755 487.787 290.271C486.541 290.787 485.409 291.543 484.456 292.497C483.503 293.45 482.746 294.582 482.23 295.828C481.714 297.074 481.449 298.409 481.449 299.757C481.449 299.933 481.453 300.108 481.462 300.283Z" fill="#2F2E41"/>
<path d="M310.161 503.158C315.314 503.158 319.491 498.98 319.491 493.827C319.491 488.674 315.314 484.497 310.161 484.497C305.008 484.497 300.83 488.674 300.83 493.827C300.83 498.98 305.008 503.158 310.161 503.158Z" fill="#6C63FF"/>
<path d="M496.77 512.488C501.924 512.488 506.101 508.311 506.101 503.158C506.101 498.005 501.924 493.827 496.77 493.827C491.617 493.827 487.44 498.005 487.44 503.158C487.44 508.311 491.617 512.488 496.77 512.488Z" fill="#6C63FF"/>
<path d="M333.321 59.8001V130.712H349.743L370.643 108.319L367.844 130.712H440.435L435.956 108.319L444.913 130.712H456.483V59.8001H333.321Z" fill="#2F2E41"/>
<path d="M322.124 143.775C325.216 143.775 327.723 139.18 327.723 133.512C327.723 127.843 325.216 123.248 322.124 123.248C319.033 123.248 316.526 127.843 316.526 133.512C316.526 139.18 319.033 143.775 322.124 143.775Z" fill="#FFB8B8"/>
<path d="M465.814 143.775C468.906 143.775 471.412 139.18 471.412 133.512C471.412 127.843 468.906 123.248 465.814 123.248C462.722 123.248 460.216 127.843 460.216 133.512C460.216 139.18 462.722 143.775 465.814 143.775Z" fill="#FFB8B8"/>
<path d="M621.132 626.585V632.836C621.136 634.551 620.818 636.252 620.195 637.851C619.919 638.563 619.585 639.252 619.196 639.91C617.969 641.971 616.227 643.676 614.142 644.861C612.057 646.045 609.7 646.667 607.302 646.666H147.44C145.042 646.667 142.685 646.045 140.6 644.861C138.514 643.676 136.773 641.97 135.546 639.91C135.157 639.252 134.823 638.563 134.547 637.851C133.924 636.252 133.606 634.551 133.61 632.836V626.585C133.609 624.769 133.966 622.971 134.661 621.293C135.355 619.615 136.373 618.091 137.657 616.807C138.94 615.522 140.464 614.503 142.142 613.808C143.819 613.113 145.617 612.755 147.432 612.754H173.947V609.84C173.947 609.764 173.962 609.689 173.991 609.619C174.019 609.55 174.062 609.486 174.115 609.432C174.169 609.379 174.232 609.336 174.302 609.307C174.372 609.278 174.446 609.263 174.522 609.263H188.354C188.507 609.263 188.654 609.323 188.762 609.431C188.87 609.539 188.931 609.685 188.931 609.838V612.754H197.571V609.84C197.571 609.764 197.586 609.689 197.615 609.62C197.643 609.55 197.686 609.486 197.739 609.433C197.792 609.379 197.856 609.336 197.926 609.307C197.995 609.278 198.07 609.263 198.146 609.263H211.978C212.131 609.263 212.277 609.323 212.385 609.431C212.494 609.539 212.555 609.685 212.555 609.838V612.754H221.205V609.84C221.205 609.764 221.22 609.689 221.249 609.62C221.278 609.55 221.32 609.486 221.373 609.433C221.427 609.379 221.49 609.336 221.56 609.307C221.63 609.278 221.704 609.263 221.78 609.263H235.612C235.765 609.263 235.912 609.323 236.02 609.431C236.128 609.539 236.189 609.685 236.189 609.838V612.754H244.829V609.84C244.829 609.764 244.844 609.689 244.873 609.62C244.901 609.55 244.944 609.486 244.997 609.433C245.05 609.379 245.114 609.336 245.184 609.307C245.253 609.278 245.328 609.263 245.404 609.263H259.236C259.389 609.263 259.535 609.323 259.644 609.431C259.752 609.539 259.813 609.685 259.813 609.838V612.754H268.453V609.84C268.453 609.764 268.468 609.689 268.496 609.62C268.525 609.55 268.568 609.486 268.621 609.433C268.674 609.379 268.738 609.336 268.807 609.307C268.877 609.278 268.952 609.263 269.028 609.263H282.86C283.013 609.263 283.159 609.323 283.267 609.431C283.376 609.539 283.436 609.685 283.437 609.838V612.754H292.087V609.84C292.087 609.764 292.102 609.689 292.131 609.62C292.159 609.55 292.202 609.486 292.255 609.433C292.308 609.379 292.372 609.336 292.442 609.307C292.511 609.278 292.586 609.263 292.662 609.263H306.494C306.647 609.263 306.793 609.323 306.902 609.431C307.01 609.539 307.071 609.685 307.071 609.838V612.754H315.711V609.84C315.711 609.764 315.726 609.689 315.754 609.62C315.783 609.55 315.826 609.486 315.879 609.433C315.932 609.379 315.996 609.337 316.065 609.307C316.135 609.278 316.21 609.263 316.286 609.263H424.624C424.699 609.263 424.774 609.278 424.844 609.307C424.914 609.336 424.978 609.378 425.031 609.431C425.085 609.485 425.127 609.548 425.156 609.618C425.185 609.688 425.2 609.763 425.201 609.838V612.754H433.851V609.84C433.851 609.764 433.866 609.69 433.894 609.62C433.923 609.55 433.966 609.486 434.019 609.433C434.072 609.379 434.136 609.337 434.206 609.307C434.275 609.278 434.35 609.263 434.426 609.263H448.258C448.41 609.265 448.556 609.326 448.664 609.434C448.772 609.542 448.833 609.688 448.835 609.84V612.754H457.475V609.84C457.475 609.764 457.489 609.69 457.518 609.62C457.547 609.55 457.589 609.486 457.643 609.433C457.696 609.379 457.76 609.337 457.829 609.307C457.899 609.278 457.974 609.263 458.05 609.263H471.882C471.957 609.263 472.032 609.278 472.102 609.307C472.172 609.336 472.236 609.378 472.289 609.431C472.343 609.485 472.385 609.548 472.414 609.618C472.443 609.688 472.458 609.763 472.459 609.838V612.754H481.099V609.84C481.098 609.764 481.113 609.69 481.142 609.62C481.171 609.55 481.213 609.486 481.267 609.433C481.32 609.379 481.383 609.337 481.453 609.308C481.523 609.279 481.598 609.263 481.673 609.263H495.506C495.581 609.263 495.656 609.278 495.726 609.307C495.796 609.336 495.86 609.378 495.913 609.431C495.967 609.485 496.009 609.548 496.038 609.618C496.067 609.688 496.082 609.763 496.082 609.838V612.754H504.733V609.84C504.733 609.764 504.747 609.69 504.776 609.62C504.805 609.55 504.847 609.486 504.901 609.433C504.954 609.379 505.018 609.337 505.087 609.308C505.157 609.279 505.232 609.263 505.308 609.263H519.14C519.291 609.265 519.436 609.327 519.542 609.435C519.648 609.543 519.707 609.689 519.706 609.84V612.754H528.357V609.84C528.357 609.764 528.371 609.69 528.4 609.62C528.429 609.55 528.471 609.486 528.525 609.433C528.578 609.379 528.641 609.337 528.711 609.308C528.781 609.279 528.856 609.263 528.931 609.263H542.764C542.839 609.263 542.914 609.278 542.984 609.307C543.054 609.336 543.118 609.378 543.171 609.431C543.225 609.485 543.267 609.548 543.296 609.618C543.325 609.688 543.34 609.763 543.34 609.838V612.754H551.981V609.84C551.98 609.764 551.995 609.69 552.024 609.62C552.053 609.55 552.095 609.486 552.148 609.433C552.202 609.379 552.265 609.337 552.335 609.308C552.405 609.279 552.48 609.263 552.555 609.263H566.388C566.463 609.263 566.538 609.278 566.608 609.307C566.678 609.336 566.741 609.378 566.795 609.431C566.848 609.485 566.891 609.548 566.92 609.618C566.949 609.688 566.964 609.763 566.964 609.838V612.754H607.302C610.969 612.753 614.486 614.209 617.08 616.802C619.674 619.394 621.131 622.91 621.132 626.577L621.132 626.585Z" fill="#3F3D56"/>
<path d="M1000 645.055H0V647.114H1000V645.055Z" fill="#3F3D56"/>
<path d="M584.103 363.33H162.865C161.343 363.33 159.835 363.63 158.428 364.212C157.022 364.795 155.744 365.649 154.667 366.726C153.59 367.802 152.736 369.08 152.154 370.487C151.571 371.894 151.271 373.401 151.271 374.924V609.63C151.271 612.705 152.493 615.654 154.667 617.828C156.841 620.002 159.79 621.224 162.865 621.224H584.103C587.178 621.224 590.127 620.002 592.301 617.828C594.476 615.654 595.697 612.705 595.697 609.63V374.924C595.697 371.849 594.476 368.9 592.301 366.726C590.127 364.551 587.178 363.33 584.103 363.33Z" fill="#3F3D56"/>
<path d="M373.821 471.016C388.04 471.016 399.567 459.49 399.567 445.271C399.567 431.052 388.04 419.526 373.821 419.526C359.603 419.526 348.076 431.052 348.076 445.271C348.076 459.49 359.603 471.016 373.821 471.016Z" fill="#6C63FF"/>
</g>
<defs>
<clipPath id="clip0_12_2">
<rect width="1000" height="647.114" fill="white"/>
</clipPath>
</defs>
</svg>
